<svg width="32" height="32" viewBox="0 0 32 32" fill="none" xmlns="http://www.w3.org/2000/svg">
  <!-- Background circle with primary color -->
  <circle cx="16" cy="16" r="16" fill="#002C4E"/>
  
  <!-- Stylized "M" and "P" letters representing "Meu Personal" -->
  <!-- Letter M -->
  <path d="M8 10h2v12h-2V14l2 4h2l2-4v8h2V10h-2l-3 6-3-6z" fill="#FFF373"/>
  
  <!-- Letter P -->
  <path d="M18 10h4c2 0 3 1 3 3v2c0 2-1 3-3 3h-2v4h-2V10zm2 2v4h2c1 0 1 0 1-1v-2c0-1 0-1-1-1h-2z" fill="#FFF373"/>
  
  <!-- Small accent dot -->
  <circle cx="26" cy="12" r="1.5" fill="#27DFFF"/>
</svg>
